<svg width="400" height="400" viewBox="0 0 400 400" fill="none" xmlns="http://www.w3.org/2000/svg">
<circle cx="200" cy="200" r="200" fill="#FFA500"/>
<path d="M301.688 68.068C301.508 68.0662 301.337 68.0709 301.176 68.082C299.879 68.1682 299.219 68.4647 298.494 69.1895L282.334 85.3496L314.652 117.666L330.811 101.506C331.537 100.782 331.833 100.122 331.919 98.8256C332.006 97.5307 331.702 95.6422 330.861 93.4566C329.179 89.0855 325.425 83.6908 320.868 79.1334C316.31 74.576 310.916 70.8219 306.545 69.1402C304.632 68.4049 302.948 68.0797 301.689 68.068H301.688ZM274.877 92.8063L269.076 98.607L274.877 104.408L282.334 111.865L288.135 117.666L295.592 125.124L301.393 130.924L307.194 125.124L274.876 92.8063H274.877ZM261.619 106.064L92.5771 275.109L98.3768 280.908L267.42 111.865L261.619 106.064V106.064ZM274.877 119.323L105.834 288.364L111.635 294.166L280.678 125.123L274.877 119.322V119.323ZM288.137 132.581L119.093 301.624L124.892 307.425L293.936 138.382L288.136 132.581H288.137ZM87.0447 284.491L79.9432 302.248L97.7516 320.057L115.508 312.956L111.635 309.082L104.176 301.625L98.375 295.824L90.916 288.366L87.043 284.492L87.0447 284.491ZM75.6805 312.902L68.0674 331.932L87.0975 324.32L75.6799 312.903L75.6805 312.902Z" fill="white"/>
</svg>
